<svg id="a975e053-9047-45cd-a90c-7d2e40090493" data-name="Layer 1" xmlns="http://www.w3.org/2000/svg" viewBox="0 0 551.06 323.47">
  <defs>
    <style>
      .eb15f857-b7d5-43b4-88c5-58beb1cead78 {
        fill: #fffbc5;
      }
    </style>
  </defs>
  <path class="eb15f857-b7d5-43b4-88c5-58beb1cead78" d="M571.91,97.69l-39-9.93H500.52s-11.16.92-18.95,4-16.21,4.13-29.51,14.07-27.67,28.12-32.25,35.61S350,273.11,350,273.11l-61.73-117.4L273,132.43s-19.49-22-24.65-25.11-16.74-12.49-31.3-15.47S194.83,86,172.36,87,126.73,99,126.73,99l.74.68,4.93.75,16-3.61,9.35-.06a64.66,64.66,0,0,1,19.14,1.09c9.12,2.18,15.17,3.94,19.61,6.69s16.28,11.08,16.28,11.08l6.11,5,6.88,9.17L213.13,152l-97.75,166.7s-7.51,11.12-21.62,13.93-20.58,2.58-20.58,2.58v4.24h95v-3.63s-8.48.92-15.44-3-7.64-8.18-7.57-8.94-1.52-4.74,1.07-7.49,18.88-35.7,18.88-35.7l73.76-133.53,85.45,170.7L323,320.8s-24.91,34.47-32.4,40.74-12.92,13.07-24.39,19.72S248,393,234.92,396.85s-15.44,4.28-25.38,4.59-28.43-.84-28.43-.84v3.13l11.77,3.69,15.76,2.47,13.07.4H236.9l21.67-2.81s7-.92,21.21-5.85,38.53-21.32,38.53-21.32l18.34-15.25L349,353l13,12.54L375.46,377,391,388.22l17.89,9.17s12.23,4.66,18.42,6.65,19.64,5.73,24.53,5.73,29.85.52,29.85.52l14.45-.75,5.5-.92,5.92-1.52,9.1-2.91-.08-3.25-18,.65-9.05.27-9.83-.42s-34.81-7-56.82-27.36a423,423,0,0,1-36.23-37.61L373.8,317.94l11.38-19.75,17.05-36.43h.38s56.87-118.39,57.25-115S517,250,517,250l6.15,11.64L554.31,317l.09,9.63-6.79,6.31s-5.13,2.55-7.8,2.74-8.1.08-8.1.08l0,3.59,28.08,0,64.42.09v-3.74l-8.62,0S603.27,334,596.5,330.2s-12.61-9.68-13.07-11S576,307.9,576,307.9l-19.24-33.49-50.35-85.25-16.72-28.41-18.31-32.16,13.88-13.7s15.09-10.55,19.18-12.11,8.06-4,14.18-4.74,9.59-2.07,17.73-2.14a133,133,0,0,1,13.88.53l7.14,1.29,5.5,1.15,8.32,1.17Z" transform="translate(-73.18 -86.82)"/>
  <polygon class="eb15f857-b7d5-43b4-88c5-58beb1cead78" points="335.16 163.18 442.55 163.18 443.85 163.18 450 174.83 382.55 174.94 329.43 174.94 335.16 163.18"/>
  <polygon class="eb15f857-b7d5-43b4-88c5-58beb1cead78" points="108.61 163.77 217.45 163.78 222.56 173.99 103.15 173.65 108.61 163.77"/>
</svg>
