<?xml version="1.0" encoding="utf-8"?>
<!-- Generator: Adobe Illustrator 26.0.3, SVG Export Plug-In . SVG Version: 6.00 Build 0)  -->
<svg version="1.0" id="katman_1" xmlns="http://www.w3.org/2000/svg" xmlns:xlink="http://www.w3.org/1999/xlink" x="0px" y="0px"
	 viewBox="0 0 800 600" style="enable-background:new 0 0 800 600;" xml:space="preserve">
<style type="text/css">
	.st0{fill:#fff;}
	.st1{fill:url(#SVGID_1_);}
	.st2{fill:url(#SVGID_00000051374753438039509950000005215147231680590759_);}
	.st3{fill:url(#SVGID_00000101813842723046238850000011061636004111365772_);}
	.st4{fill:url(#SVGID_00000174592833957608428110000017059884987383896220_);}
</style>
<path class="st0" d="M713.3,176.6c-12.4,0-21.4,9.9-21.4,20.9c0,11,9,20.9,21.4,20.9c12.4,0,22-9,22-20.9
	C735.3,185.6,725.7,176.6,713.3,176.6z M404.6,239.2c-39.5,0-71.1,27.5-71.1,68.6c0,41.1,31.6,68.7,71.1,68.7c18,0,35-5.6,49.1-19.4
	l-20.6-20.6c-7.7,8.1-17.6,13.9-31.7,13.9c-18.3,0-33-11.7-35.2-31.1h99.7v-9C465.9,264.8,441.2,239.2,404.6,239.2z M531.4,239.2
	c-26.4,0-52.6,13.1-52.6,42.2c0,49.9,70.5,28.6,70.5,55.6c0,10.4-12.3,15-21.8,15c-13.9,0-22.6-6.8-31-16l-21.1,21.1
	c13.3,14.4,30.4,19.4,50.2,19.4c26.7,0,56.4-10.9,56.4-42c0-51-70.6-31.9-70.6-55.3c0-9.8,10.4-13.9,19.1-13.9
	c11.1,0,19.2,4.6,25.5,13.2l20.8-20.8C566.2,244.4,548.3,239.2,531.4,239.2z M669.1,239.2c-17.2,0-31.6,9-38.7,23.9h-0.5v-20.7
	h-32.7v130.8h32.7v-70c0-7.1,4.3-33,35.1-33c4.7,0,9.5,0.9,14.4,2.1l1.3-31.3C676.9,240.1,673.1,239.2,669.1,239.2z M697.3,242.5
	v130.8h32.7V242.5C729.9,242.5,697.3,242.5,697.3,242.5z M400,263.7c20.4,0,33,12,33.3,31.1h-67C368.7,276,380.7,263.7,400,263.7z"
	/>
<radialGradient id="SVGID_1_" cx="51.0661" cy="518.9436" r="21.8169" gradientTransform="matrix(3.2912 0 0 -3.2912 -18.6889 1994.8013)" gradientUnits="userSpaceOnUse">
	<stop  offset="0" style="stop-color:#BFE6F9"/>
	<stop  offset="1" style="stop-color:#1478C7"/>
</radialGradient>
<path class="st1" d="M80.5,305.6c0,55.9,45.3,101.3,101.3,101.3c55.9,0,101.3-45.3,101.3-101.3c0-55.9-45.3-101.2-101.3-101.2
	C125.9,204.4,80.5,249.7,80.5,305.6"/>
<radialGradient id="SVGID_00000066478209147211681180000000696617235222217398_" cx="40.8643" cy="533.8768" r="21.8169" gradientTransform="matrix(4.0378 0 0 -4.0378 -19.6188 2443.53)" gradientUnits="userSpaceOnUse">
	<stop  offset="0" style="stop-color:#A6D71C"/>
	<stop  offset="0.961" style="stop-color:#23A03D"/>
	<stop  offset="1" style="stop-color:#23A03D"/>
</radialGradient>
<path style="fill:url(#SVGID_00000066478209147211681180000000696617235222217398_);" d="M139,226c-7.8,0.3-15.3,1.4-22.7,2.5
	c-21.1,17.9-34.8,44.4-35.7,74c6,6.3,13.9,20.5,22.9,28.7c1.2-0.5,2.5-1,3.9-1.4c-4.5-5.2-10.7-12.1-11.6-15.2
	c-4.6-15.5,0.7-30,12.2-31.1c10.3-1,19.1-16.4,26.4-26.4c14.9-20.7,37.9-17.2,36.8-27.6c-1.3-6-4.9-7.9-9.5-7.9
	C154.9,221.5,145.8,225.7,139,226"/>
<radialGradient id="SVGID_00000035522476625016532690000014500818151814940820_" cx="36.5053" cy="549.258" r="21.8169" gradientTransform="matrix(5.132 0 0 -5.132 -19.6922 3100.8772)" gradientUnits="userSpaceOnUse">
	<stop  offset="0" style="stop-color:#A6D71C"/>
	<stop  offset="0.961" style="stop-color:#23A03D"/>
	<stop  offset="1" style="stop-color:#23A03D"/>
</radialGradient>
<path style="fill:url(#SVGID_00000035522476625016532690000014500818151814940820_);" d="M111.8,328.5c-1.5,0.4-2.9,0.8-4.3,1.2
	c-1.2,0.3-2.2,0.8-3.9,1.4c-3.7,1.7-6.4,4.2-7,9.6c-1.1,9.8,8.2,17.6,16.1,19.8c10,2.9,10.8-0.5,16.1,6.6c3.7,5,4.4,14.1,6.2,20.2
	c1,3.4,2.5,6.7,4.2,10c7.1,3.3,14.7,5.9,22.7,7.4c2-11.7,1.1-27.4,3.7-34.2c5.4-13.9,8.4-20.1,1.2-34.4c-15.9-4.5-20.7-5.9-36.8-9.2
	c-3.3-0.7-5.3-1-7.1-1C119.9,326,117.5,326.9,111.8,328.5"/>
<radialGradient id="SVGID_00000026152200350366713160000011815320965200904607_" cx="29.0154" cy="568.5759" r="21.8169" gradientTransform="matrix(6.7835 0 0 -6.7835 -20.9676 4091.2502)" gradientUnits="userSpaceOnUse">
	<stop  offset="0" style="stop-color:#A6D71C"/>
	<stop  offset="0.961" style="stop-color:#23A03D"/>
	<stop  offset="1" style="stop-color:#23A03D"/>
</radialGradient>
<path style="fill:url(#SVGID_00000026152200350366713160000011815320965200904607_);" d="M210.3,247.8c-4.7,6.7-21.1,8.5-26.4,16.1
	c-4.1,5.9,0.1,17.4-3.4,24.1c-1.7,3.1-0.9,12,1.1,14.9c6.3,9.2,16.9,4.1,24.8,7.4c9.7,4,10.8,15.2,18.8,23.4
	c8,8.2-10.2,20.9,4.7,50.7c1.6,3.2,3.5,5.6,5.4,7.2c10.1-6.3,19-14.3,26.3-23.6c2.3-15.1-2.8-19.9,3.5-33.7
	c3.9-8.5,10.7-23.2,17.9-33.2c-1.2-28-13.8-53-33.2-70.6c-1.8,0.5-4.1,0.6-7.3,0c-2.7-0.5-5.2-0.7-7.4-0.7
	C220.1,229.9,215.6,240.2,210.3,247.8"/>
<path class="st0" d="M170.2,413.1c-3.4-1.9-7.6-4.9-11.5-7.5c-1.6,1.4-2.9,3.6-4.2,5.3C159,412.4,165.1,412.5,170.2,413.1
	 M152.5,401.1c-7.2-5.4-25-22.2-32.3-32.4c-2.7,1.6-5.7,5.9-9.6,6.7c-1.5,0.3-5,0.7-6,0.3c-1-0.4,0.2-2.6,1.3-4
	c1.9-2.5,4.7-5.8,8.8-8.9c-8.8-12.8-12.9-22.2-18.9-37.7c-3.4,2.1-5.9,4.1-8.9,6.5c-1,0.8-3.8,1.3-5.1,0.1c-2.5-2.2-2.5-6.1,1-8.5
	c1.4-1,8.4-5.8,10.1-7.2c-4.3-12.4-7.9-28.7-8.9-37.2c-2.9,2.5-6.9,5.3-8,6.1c-1.6,0.5-2.7-0.1-3.2-0.1c-1.6,17.6,0.3,36.9,5.5,54.4
	c9,30,34.1,58.6,68.1,69.3C147,407,150.9,402.5,152.5,401.1 M82.8,269.5c-0.4-6.5-0.9-15.4-0.9-15.4c-4.8,10.4-7.6,16.6-9,28.7
	C76.2,276.9,82.8,269.5,82.8,269.5 M133.8,195.2c19.7-8.2,38.9-12.7,61.1-9.6c2.5,0.3,2.3,2.4-0.4,2.5l-3.1,0.1
	c-17.9,0.3-44.1,6-57.7,13.6c-0.3,9.1,1.4,23.5,3.3,34.8c12.4-5.2,31.4-10.5,46-12.1c-8.2-8.7-19.4-17-20.8-18c-1.3-1-2-2.6-2-4.7
	c0.2-4,3.6-4.4,5.4-4c6-1.2,12-2.5,22.3-2.2c43.2-1.9,82.7,22.6,97.7,50.4c38.2,60.4,0,143.6-50,165.8c-21.4,9.5-39.7,13.6-73.5,8.9
	c-33.8-4.7-61.5-21.3-83-56.1c-26.5-42.9-11.6-92.8-7.9-103.3C87.1,223.8,113.2,203.8,133.8,195.2 M89.1,240.9
	c-0.6,4.5,0,12.9,1.2,22.8c9.2-8.2,26.9-18.9,41.8-25.5c-1.7-11.3-3.5-29.3-3.4-34.1c-13.7,7.5-28.8,22.7-39.8,38.2 M91.1,272.8
	c1.3,9,5.6,28.3,9.5,38.1c9.2-6.9,30-19.8,41.8-25c-4.1-15-6.9-24.5-9.2-39.6C116.5,253.7,98.9,265.2,91.1,272.8 M104.2,319.5
	c5.5,15.6,10.7,27.5,17.6,37.3c8.1-7,24.6-18.1,37.2-24.1c-4.2-8.9-10.2-25.7-14.4-38.2C128.4,302.5,116.2,310.3,104.2,319.5
	 M126.9,363.6c8.6,11,22,24.9,31.3,32.6c8.8-7.1,18.8-13.7,27.2-17.8c-7.2-11.1-17.8-27.3-22.2-37.3
	C147.3,348.2,138.2,354.2,126.9,363.6 M163.8,401.1c3.4,3.4,16.9,12.4,16.9,12.4c9,0.4,20.3-0.7,28.4-2.1
	c-4.5-5.1-15.6-20.8-19-26.1C181.4,388.8,170.5,395.5,163.8,401.1 M218.4,409.1c4.5-1.5,16.1-6.7,18.5-8.3
	c0.6-9.3,0.5-19.9,0.1-26.3c-12.2,0-29.3,3.6-39.1,7.7C203.6,391.3,211.5,401.4,218.4,409.1 M243.3,397.3
	c9.1-5.7,17.7-12.2,23.9-20.1c-5.4-1.3-17.3-3-23.3-2.6C244,374.6,243.8,388.8,243.3,397.3 M270.1,373.5c1.7-1.7,4.3-5.4,5.3-7.5
	c1-8.6,1-26.4,0.7-31.6c-10.4-4.2-26.6-7.6-38.3-8.4c3.8,14.1,5.7,34.7,6,41.5C249.5,368.1,263.7,371,270.1,373.5 M285.5,333.4
	c-0.5,1.6-3.4,3.3-4.7,2.9c0.2,2.9-0.5,17.3-1.2,22.9c2-4.1,5.8-14.3,7-18.7l1.6-6.3c1.6-5.4,6.8-24,2.1-48.6
	c-5.3-27.3-15.1-37-18.6-41.3c-8.8-4.8-22-9.1-22-9.1c12,16.3,16.2,23.9,23.4,43.3c4.2,2.2,11.7,6.4,12.7,7.5
	c0.8,0.9,0.8,2.5-1.6,2.5c-2,0-5.8-1.9-8.8-2.7c3.2,10.6,5.6,30.3,5.4,43.5C280.7,329.3,285.9,331.8,285.5,333.4 M265.4,235.2
	c-16.7-20.4-54.4-37.8-96.3-35.1c9.4,6.2,17.2,15.5,24,23.2c10.5-1,32.5,0.8,40.8,3.1c-1.4-1.7-3.1-3.3-3.6-4.3
	c-1.2-2.5,1.7-3.1,3.9-1.6c2.9,1.8,6.2,4,8.8,6.7C247.8,228.2,259.8,232.3,265.4,235.2 M276,327.2c-0.7-13.2-2.7-30.7-7.6-43
	c-12.9-5.2-30.6-8.4-46.1-8.6c4.8,11.2,10.3,29.8,13.1,41.8C246.6,318.8,264.1,322,276,327.2 M239.7,233.1
	c-11.7-2.1-28.7-3.5-41.3-2.7c8.6,11.9,14.9,22.3,20.9,37.1c16,0.4,37.7,5.2,46.6,8.7C260.5,262,250.4,244,239.7,233.1 M166.5,329.2
	c19-8.8,40-12.7,61-12.1c-5.7-19.9-9-29.1-13.9-41.3c-23.4,1-43.4,6.8-61.5,15.4C152,291.2,158.7,312.8,166.5,329.2 M229.7,325.5
	c-23.8-0.3-44.6,5.4-58.9,12.4c6,13,17.9,30.2,22.4,37.3c7.7-2.9,16.1-5.1,22.5-6.1c6.5-1,15.1-2,20.9-1.8
	C235.6,352.1,233.8,341.9,229.7,325.5 M149.3,283c17.2-7.3,35.9-13.2,61.1-15.3c-6.4-15.4-13.5-26.3-21.8-36.2
	c-18.6,1.5-35.5,6.5-50.2,12.5C140.6,255.5,144.7,269.3,149.3,283"/>
</svg>
